<svg width="200" height="200" viewBox="0 0 200 200" fill="none" xmlns="http://www.w3.org/2000/svg">
<rect width="200" height="200" rx="100" fill="white"/>
<path d="M113.34 66.6533L99.6289 132L72.2949 133.45C71.9727 130.667 71.6064 127.737 71.1963 124.661C70.8154 121.585 70.4053 118.509 69.9658 115.433C69.5557 112.327 69.1309 109.295 68.6914 106.336C68.252 103.348 67.8271 100.55 67.417 97.9424C67.0361 95.335 66.6699 92.9912 66.3184 90.9111C65.9668 88.8018 65.6738 87.0732 65.4395 85.7256C65.2051 87.3662 64.8682 89.4463 64.4287 91.9658C63.9893 94.4854 63.5059 97.2393 62.9785 100.228C62.4512 103.187 61.8945 106.263 61.3086 109.456C60.7227 112.649 60.1514 115.755 59.5947 118.772C59.0674 121.761 58.584 124.544 58.1445 127.122C57.7051 129.671 57.3535 131.78 57.0898 133.45H34.5898L21.7139 68.3672L42.5 66.6533C43.8477 74.6514 45.1074 82.0195 46.2793 88.7578C46.7773 91.6289 47.2607 94.5146 47.7295 97.415C48.2275 100.286 48.6816 102.967 49.0918 105.457C49.5312 107.918 49.9121 110.086 50.2344 111.961C50.5566 113.836 50.8057 115.213 50.9814 116.092C51.4502 114.305 51.9189 112.298 52.3877 110.071C52.8564 107.815 53.3252 105.457 53.7939 102.996C54.292 100.535 54.7607 98.0156 55.2002 95.4375C55.6689 92.8594 56.1084 90.3398 56.5186 87.8789C56.958 85.3887 57.3535 83.0303 57.7051 80.8037C58.0566 78.5479 58.3643 76.5264 58.6279 74.7393C58.9209 72.9521 59.1553 71.458 59.3311 70.2568C59.5068 69.0557 59.624 68.25 59.6826 67.8398L80.3809 66.6533C81.4355 73.333 82.4756 79.7783 83.501 85.9893C83.9404 88.6553 84.3799 91.3945 84.8193 94.207C85.2881 97.0195 85.7568 99.7734 86.2256 102.469C86.6943 105.164 87.1484 107.728 87.5879 110.159C88.0273 112.591 88.4229 114.744 88.7744 116.619C89.0381 114.744 89.3457 112.591 89.6973 110.159C90.0781 107.698 90.4736 105.12 90.8838 102.425C91.3232 99.7295 91.7773 96.9756 92.2461 94.1631C92.7148 91.3506 93.1689 88.626 93.6084 85.9893C94.6338 79.7783 95.7178 73.333 96.8604 66.6533H113.34Z" fill="#6AA6FF"/>
<path d="M175.311 89.4609H161.313C161.057 87.6499 160.535 86.0412 159.747 84.6349C158.958 83.2074 157.946 81.9929 156.711 80.9915C155.475 79.9901 154.047 79.223 152.428 78.6903C150.83 78.1577 149.093 77.8913 147.218 77.8913C143.831 77.8913 140.88 78.733 138.365 80.4162C135.851 82.0781 133.902 84.5071 132.517 87.7031C131.132 90.8778 130.439 94.7344 130.439 99.2727C130.439 103.939 131.132 107.859 132.517 111.034C133.923 114.209 135.883 116.606 138.397 118.225C140.912 119.844 143.82 120.654 147.122 120.654C148.976 120.654 150.691 120.409 152.268 119.919C153.866 119.429 155.283 118.715 156.519 117.778C157.755 116.819 158.777 115.658 159.587 114.294C160.418 112.93 160.993 111.375 161.313 109.628L175.311 109.692C174.949 112.696 174.044 115.594 172.595 118.385C171.167 121.155 169.239 123.637 166.81 125.832C164.402 128.005 161.526 129.731 158.181 131.009C154.857 132.266 151.096 132.895 146.899 132.895C141.061 132.895 135.84 131.574 131.238 128.932C126.657 126.29 123.035 122.465 120.372 117.458C117.73 112.451 116.409 106.389 116.409 99.2727C116.409 92.1349 117.751 86.0625 120.436 81.0554C123.12 76.0483 126.764 72.2344 131.366 69.6136C135.968 66.9716 141.146 65.6506 146.899 65.6506C150.691 65.6506 154.207 66.1832 157.446 67.2486C160.706 68.3139 163.593 69.8693 166.107 71.9148C168.621 73.9389 170.666 76.4212 172.243 79.3615C173.841 82.3018 174.864 85.6683 175.311 89.4609Z" fill="black"/>
</svg>
